# xmcd CD database file
#
# Track frame offsets:
#	150
#	22493
#	49473
#	71785
#	92036
#	109913
#	130914
#	163927
#
# Disc length: 2414 seconds
#
# Revision: 1
# Processed by: cddbd v1.5.1PL2 Copyright (c) Steve Scherf et al.
# Submitted via: CDex 1.51
#
DISCID=7c096c08
DTITLE=Dave Brubeck - Jazz Impressions Of The USA
DYEAR=1957
DGENRE=Jazz
TTITLE0=01 Ode To A Cowboy 
TTITLE1=02 Summer Song
TTITLE2=03 Yonder for Two
TTITLE3=04 History of a Boy Scout
TTITLE4=05 Plain Song
TTITLE5=06 Curtain Time
TTITLE6=07 Sounds of the Loop
TTITLE7=08 Home at Last
EXTD=YEAR: 1957
EXTT0=
EXTT1=
EXTT2=
EXTT3=
EXTT4=
EXTT5=
EXTT6=
EXTT7=
PLAYORDER=
